<svg width="16" height="17" viewBox="0 0 16 17" fill="none" xmlns="http://www.w3.org/2000/svg">
<path d="M0.96875 13.7378V7.40775C0.96875 6.83069 1.23517 6.28595 1.69068 5.93166L6.85193 1.91736C7.52721 1.39214 8.47279 1.39214 9.14807 1.91736L14.3093 5.93166C14.7648 6.28595 15.0312 6.83069 15.0312 7.40775V13.7378C15.0312 14.7705 14.194 15.6077 13.1612 15.6077H10.8438C10.5676 15.6077 10.3438 15.3839 10.3438 15.1077V12.3772C10.3438 12.103 10.2989 11.8258 10.1538 11.5931C9.96401 11.2889 9.71071 11.0269 9.4094 10.826C8.99222 10.5479 8.50174 10.3994 8 10.3994C7.49826 10.3994 7.00778 10.5479 6.5906 10.826C6.28929 11.0269 6.03599 11.2889 5.84618 11.5931C5.70109 11.8258 5.65625 12.103 5.65625 12.3772V15.1078C5.65625 15.3839 5.43239 15.6077 5.15625 15.6077H2.83875C1.80598 15.6077 0.96875 14.7705 0.96875 13.7378Z" stroke="white" stroke-width="1.5" stroke-linecap="round" stroke-linejoin="round"/>
</svg>
